<?xml version="1.0" standalone="no"?>
<!DOCTYPE svg PUBLIC "-//W3C//DTD SVG 1.1//EN" "http://www.w3.org/Graphics/SVG/1.1/DTD/svg11.dtd" >
<svg xmlns="http://www.w3.org/2000/svg">
<metadata>
This is a custom SVG webfont generated by Fontspring.
Designer    : FontSite.com
Foundry URL : http://www.fontsite.com
</metadata>
<defs>
<font id="webfontEtNqJmif" horiz-adv-x="500" >
<font-face units-per-em="1000" ascent="800" descent="-200" />
<missing-glyph horiz-adv-x="298" />
<glyph unicode=" "  horiz-adv-x="298" />
<glyph unicode="&#x09;" horiz-adv-x="298" />
<glyph unicode="&#xa0;" horiz-adv-x="298" />
<glyph unicode="!" horiz-adv-x="303" d="M146 183l-49 141v245q0 64 -19 98h149q-19 -34 -19 -98v-245l-52 -141h-10zM151 134q31 0 53 -21t22 -50t-22 -49.5t-53 -20.5t-53 21t-22 50t22 49.5t53 20.5z" />
<glyph unicode="&#x22;" horiz-adv-x="381" d="M84 439l-22 228h104l-24 -228h-58zM237 439l-22 228h103l-23 -228h-58z" />
<glyph unicode="#" horiz-adv-x="538" d="M372 224l-23 -162h-68l23 162h-102l-23 -162h-67l22 162h-96l9 62h96l14 100h-96l8 62h97l23 163h68l-23 -163h102l23 163h67l-23 -163h98l-9 -62h-97l-14 -100h97l-8 -62h-98zM327 386h-102l-14 -100h102z" />
<glyph unicode="$" d="M270 575v-183l77 -43q54 -32 77.5 -66.5t23.5 -83.5q0 -73 -48.5 -123t-129.5 -61v-82h-46v78h-8q-68 0 -149 30v111q79 -60 157 -61v210q-99 49 -135 88.5t-36 96.5q0 67 46.5 112.5t124.5 54.5v80h46v-78q79 -3 135 -29v-110q-66 54 -135 59zM224 415v157 q-31 -7 -50 -27.5t-19 -47.5q0 -24 14.5 -41.5t49.5 -37.5zM270 277v-179q35 11 55.5 35.5t20.5 55.5q0 28 -16 46t-60 42z" />
<glyph unicode="%" horiz-adv-x="678" d="M314 613l31 54h233q-23 -33 -50 -80l-307 -522q-27 -45 -32 -65h-98q29 31 72 105l288 491h-129q16 -37 16 -70q0 -69 -45 -112.5t-116 -43.5q-65 0 -105.5 40t-40.5 105q0 70 45.5 115t116.5 45q78 0 121 -62zM177 627q-22 0 -35.5 -23t-13.5 -62q0 -53 18.5 -88.5 t46.5 -35.5q22 0 35 22.5t13 61.5q0 53 -18.5 89t-45.5 36zM501 297q66 0 106 -41.5t40 -110.5q0 -67 -45.5 -110t-115.5 -43q-65 0 -105.5 40t-40.5 105q0 70 45.5 115t115.5 45zM486 249q-22 0 -35.5 -23t-13.5 -62q0 -53 18.5 -88.5t46.5 -35.5q22 0 35 22.5t13 61.5 q0 53 -18.5 89t-45.5 36z" />
<glyph unicode="&#x26;" horiz-adv-x="746" d="M433 550h249v-76h-81q-1 -195 -48 -298q62 -66 97.5 -92t75.5 -34q-57 -56 -92 -56q-26 0 -52.5 18t-81.5 75q-94 -98 -230 -98q-99 0 -159.5 48.5t-60.5 128.5q0 100 104 160q-53 41 -53 101q0 62 44.5 103.5t111.5 41.5t109.5 -39.5t42.5 -100.5q0 -53 -48 -100 q66 -37 118 -87q32 65 32 229h-78v76zM265 374q27 15 36 27.5t9 34.5q0 23 -15.5 39.5t-37.5 16.5t-37.5 -17t-15.5 -40t14 -37t47 -24zM247 282q-89 -39 -89 -108q0 -43 35 -71.5t87 -28.5q91 0 151 84q-71 79 -184 124z" />
<glyph unicode="'" horiz-adv-x="273" d="M106 439l-22 228h104l-24 -228h-58z" />
<glyph unicode="(" horiz-adv-x="385" d="M265 667h96q-100 -102 -141.5 -194t-41.5 -213t41.5 -213t141.5 -194h-96q-107 98 -155 194.5t-48 212.5t48 212.5t155 194.5z" />
<glyph unicode=")" horiz-adv-x="385" d="M120 -147h-96q100 102 141.5 193.5t41.5 213.5t-41.5 213.5t-141.5 193.5h96q107 -97 155 -193.5t48 -213.5t-48 -213.5t-155 -193.5z" />
<glyph unicode="*" horiz-adv-x="399" d="M177 569l-21 95q24 9 44 9q19 0 43 -9l-21 -95l72 66q36 -31 43 -75l-93 -30l93 -29q-7 -46 -43 -75l-72 66l21 -94q-23 -11 -42 -11q-23 0 -45 10l21 95l-72 -66q-36 29 -43 75l93 29l-93 30q7 46 43 75z" />
<glyph unicode="+" horiz-adv-x="589" d="M56 380h199v192h80v-192h199v-80h-199v-192h-80v192h-199v80z" />
<glyph unicode="," horiz-adv-x="267" d="M79 149h136v-12q0 -60 -24 -126q-24 -68 -71 -109h-83q46 96 46 194q0 26 -4 53z" />
<glyph unicode="-" horiz-adv-x="340" d="M47 184v112q31 -8 69 -8h109q38 0 69 8v-112q-31 8 -69 8h-109q-38 0 -69 -8z" />
<glyph unicode="." horiz-adv-x="267" d="M133 147q35 0 58.5 -22.5t23.5 -55.5q0 -31 -24 -53.5t-58 -22.5t-58 22.5t-24 54.5t24 54.5t58 22.5z" />
<glyph unicode="/" horiz-adv-x="492" d="M388 667h104q-26 -31 -56 -89l-316 -614q-23 -45 -23 -66h-106q33 42 64 103l298 576q31 59 35 90z" />
<glyph unicode="0" horiz-adv-x="589" d="M295 682q113 0 177 -94t64 -260q0 -167 -77 -266q-60 -77 -164 -77q-111 0 -176 94t-65 254q0 161 65 255t176 94zM295 593q-60 0 -92.5 -67.5t-32.5 -191.5q0 -125 32.5 -192.5t92.5 -67.5q59 0 92 67.5t33 188.5q0 127 -32.5 195t-92.5 68z" />
<glyph unicode="1" horiz-adv-x="589" d="M361 694v-576q0 -46 4 -69t18 -49h-155q14 26 18 48.5t4 69.5v408h-83z" />
<glyph unicode="2" horiz-adv-x="589" d="M480 0h-422q104 130 218 296q54 78 76 125t22 83q0 38 -22.5 61.5t-59.5 23.5q-43 0 -69 -31t-26 -83q0 -24 8 -60l-118 36l-2 34q0 85 59 141t148 56q87 0 141.5 -49.5t54.5 -128.5q0 -87 -81 -198l-157 -217h93q97 0 182 49z" />
<glyph unicode="3" horiz-adv-x="589" d="M83 667h435q-16 -24 -46 -80l-112 -210q55 -20 84 -50q52 -52 52 -133q0 -93 -64 -151t-165 -58q-119 0 -198 82l63 100q36 -49 66 -69t68 -20q49 0 82 34t33 84q0 54 -40.5 87t-107.5 33q-12 0 -21 -1l140 263h-73q-69 0 -108 -8t-85 -31z" />
<glyph unicode="4" horiz-adv-x="589" d="M444 201v-103q0 -62 17 -98h-143q17 35 17 98v103h-272v87q18 16 31 35l220 298q17 23 26 46h115q-11 -54 -11 -114v-263h88v-89h-88zM338 289v230l-165 -230h165z" />
<glyph unicode="5" horiz-adv-x="589" d="M248 578l-7 -170q19 2 36 2q97 0 157.5 -57.5t60.5 -149.5q0 -94 -64 -156t-161 -62q-104 0 -193 79l57 92q54 -78 130 -78q50 0 82.5 35t32.5 90q0 53 -33 85.5t-87 32.5q-60 0 -129 -31l9 279q2 58 -17 98h383l-49 -115q-29 16 -54.5 21t-70.5 5h-83z" />
<glyph unicode="6" horiz-adv-x="589" d="M289 667h145q-37 -44 -91 -139l-81 -144q38 7 58 7q85 0 143.5 -56t58.5 -138q0 -89 -68 -150.5t-166 -61.5q-93 0 -157.5 57t-64.5 140q0 62 57 165l142 254q21 38 24 66zM292 302q-47 0 -77 -31.5t-30 -80.5q0 -51 31 -83.5t80 -32.5q47 0 77 31t30 79q0 53 -31 85.5 t-80 32.5z" />
<glyph unicode="7" horiz-adv-x="589" d="M96 667h436q-27 -38 -54 -105l-196 -481q-21 -53 -21 -73v-8h-146q21 24 33 46t37 81l188 451h-117q-55 0 -89.5 -10.5t-70.5 -37.5v137z" />
<glyph unicode="8" horiz-adv-x="589" d="M169 349q-44 32 -63.5 66t-19.5 80q0 81 59 134t150 53q90 0 149 -53t59 -134q0 -46 -19.5 -80t-63.5 -66q102 -56 102 -165q0 -85 -65 -142t-163 -57q-97 0 -162 57t-65 142q0 109 102 165zM294 593q-40 0 -68 -29t-28 -70t28 -70.5t68 -29.5t68 28.5t28 69.5 q0 43 -27.5 72t-68.5 29zM294 305q-47 0 -79.5 -33.5t-32.5 -81.5t33 -82t80 -34q46 0 79 33.5t33 80.5q0 50 -32.5 83.5t-80.5 33.5z" />
<glyph unicode="9" horiz-adv-x="589" d="M300 0h-146q26 31 42 55t50 84l81 145q-32 -8 -56 -8q-87 0 -145.5 55.5t-58.5 138.5q0 89 68 150.5t166 61.5q93 0 157.5 -57t64.5 -140q0 -63 -57 -165l-142 -254q-23 -42 -24 -66zM293 593q-47 0 -77 -31t-30 -79q0 -53 31 -85.5t80 -32.5q47 0 77 31.5t30 80.5 q0 51 -31 83.5t-80 32.5z" />
<glyph unicode=":" horiz-adv-x="267" d="M133 458q35 0 58.5 -22.5t23.5 -55.5q0 -31 -24 -53.5t-58 -22.5t-58 22.5t-24 54.5t24 54.5t58 22.5zM133 147q35 0 58.5 -22.5t23.5 -55.5q0 -31 -24 -53.5t-58 -22.5t-58 22.5t-24 54.5t24 54.5t58 22.5z" />
<glyph unicode=";" horiz-adv-x="267" d="M79 149h136v-12q0 -60 -24 -126q-24 -68 -71 -109h-83q46 96 46 194q0 26 -4 53zM142 458q35 0 59 -22.5t24 -55.5q0 -31 -24.5 -53.5t-58.5 -22.5t-58 22.5t-24 54.5t24 54.5t58 22.5z" />
<glyph unicode="&#x3c;" d="M466 591v-104l-321 -154l321 -153v-105l-433 214v89z" />
<glyph unicode="=" horiz-adv-x="589" d="M56 462h478v-80h-478v80zM56 298h478v-80h-478v80z" />
<glyph unicode="&#x3e;" d="M34 591l433 -213v-89l-433 -214v105l321 153l-321 154v104z" />
<glyph unicode="?" horiz-adv-x="446" d="M33 527l11 116q79 36 153 36q91 0 150 -54t59 -137q0 -66 -38 -115q-18 -23 -33 -35t-87 -60q-52 -35 -87 -83h-12l-7 105q21 23 55 49q56 41 74.5 67.5t18.5 63.5q0 47 -32 78.5t-80 31.5q-60 0 -145 -63zM166 134q31 0 53 -21t22 -50t-22 -49.5t-53 -20.5t-53 21 t-22 50t22 49.5t53 20.5z" />
<glyph unicode="@" horiz-adv-x="755" d="M501 494h64l-41 -208q-3 -14 -6 -45q-1 -18 8.5 -30.5t23.5 -12.5q40 0 72.5 57t32.5 127q0 106 -73 173.5t-187 67.5q-123 0 -207 -84.5t-84 -208.5q0 -121 80 -204q79 -83 217 -83q110 0 206 45l17 -56q-104 -45 -222 -45q-160 0 -257 96q-48 47 -74.5 112t-26.5 136 q0 147 101 247.5t249 100.5q137 0 227 -84.5t90 -211.5q0 -94 -50 -165.5t-116 -71.5q-29 0 -50 18t-23 45q-46 -68 -124 -68q-62 0 -102 46t-40 116q0 83 52 143t124 60q77 0 108 -69zM389 443q-45 0 -77.5 -41t-32.5 -97q0 -46 23 -74t60 -28q44 0 75.5 43t31.5 104 q0 43 -21.5 68t-58.5 25z" />
<glyph unicode="A" horiz-adv-x="681" d="M449 214h-225l-50 -111q-13 -28 -13 -62q0 -16 8 -41h-160q28 34 61 105l269 586l283 -596q32 -66 56 -95h-169q9 22 9 41q0 27 -17 63zM414 292l-79 173l-76 -173h155z" />
<glyph unicode="B" horiz-adv-x="548" d="M71 667h144q116 0 178 -35q35 -19 55 -53t20 -75q0 -86 -91 -142q123 -48 123 -163q0 -46 -20.5 -86.5t-55.5 -65.5q-68 -47 -199 -47h-154q13 25 17 44t4 62v455q0 43 -4 62t-17 44zM205 597v-219q143 13 143 116q0 100 -143 103zM205 330v-260q59 1 93 13 q35 11 55.5 41.5t20.5 70.5t-21 72t-56 46t-92 17z" />
<glyph unicode="C" horiz-adv-x="613" d="M570 659l-1 -110q-71 55 -165 55q-105 0 -170.5 -74.5t-65.5 -194.5q0 -119 66.5 -194.5t171.5 -75.5q88 0 169 65l3 -115q-93 -30 -183 -30q-155 0 -251 93t-96 244q0 157 105 258.5t269 101.5q82 0 148 -23z" />
<glyph unicode="D" horiz-adv-x="664" d="M71 667h167q176 0 275 -90q104 -93 104 -246q0 -161 -118 -254q-97 -77 -272 -77h-155q13 24 17 43t4 63v455q0 41 -4.5 62t-17.5 44zM206 597v-527q117 3 182 44q52 33 80.5 90.5t28.5 128.5q0 78 -33.5 138.5t-92.5 92.5q-58 30 -165 33z" />
<glyph unicode="E" horiz-adv-x="505" d="M205 380h236l-55 -109q-51 38 -133 38h-48v-236h73q63 0 106.5 8t99.5 29l-50 -110h-363q13 25 17 44t4 62v455q0 43 -4 62t-17 44h394l-51 -107q-47 34 -138 34h-71v-214z" />
<glyph unicode="F" horiz-adv-x="477" d="M205 303v-197q0 -43 4 -62.5t17 -43.5h-155q13 25 17 44t4 62v455q0 43 -4 62t-17 44h396l-54 -110q-49 37 -130 37h-78v-218h232l-52 -103q-41 30 -115 30h-65z" />
<glyph unicode="G" horiz-adv-x="703" d="M595 656l3 -123q-50 39 -93.5 55t-99.5 16q-107 0 -172 -70.5t-65 -188.5q0 -128 69 -204t185 -76q48 0 100 17v164q0 42 -4 62t-17 44h151q-13 -24 -17 -44t-4 -62v-110q0 -68 19 -103q-109 -48 -234 -48q-166 0 -267 94.5t-101 249.5q0 157 103.5 255t267.5 98 q98 0 176 -26z" />
<glyph unicode="H" horiz-adv-x="689" d="M483 305h-278v-199q0 -42 4 -62t17 -44h-155q13 25 17 44t4 62v455q0 43 -4 62t-17 44h155q-13 -24 -17 -44t-4 -62v-180h278v180q0 42 -4 62t-17 44h155q-13 -24 -17 -44t-4 -62v-455q0 -42 4 -62.5t17 -43.5h-155q13 24 17 44t4 62v199z" />
<glyph unicode="I" horiz-adv-x="298" d="M226 0h-155q13 25 17 44t4 62v455q0 43 -4 62t-17 44h155q-13 -24 -17 -43.5t-4 -62.5v-455q0 -43 4 -62.5t17 -43.5z" />
<glyph unicode="J" horiz-adv-x="386" d="M68 667h247q-13 -23 -17 -44t-4 -63v-420q0 -75 -12.5 -118t-46.5 -84q-64 -75 -111 -75q-36 0 -76 29q63 34 103 99q19 30 24.5 57t5.5 86v457h-32q-78 0 -133 -36z" />
<glyph unicode="K" horiz-adv-x="650" d="M304 374l236 -271q62 -70 97 -103h-185q1 5 1 11q0 31 -51 91l-197 231v-227q0 -43 4 -62.5t17 -43.5h-155q13 25 17 44t4 62v455q0 43 -4 62t-17 44h155q-13 -24 -17 -44t-4 -62v-173l191 197q32 34 32 72v10h165q-11 -9 -71 -69z" />
<glyph unicode="L" horiz-adv-x="495" d="M415 0h-344q13 25 17 44.5t4 62.5v454q0 43 -4 62t-17 44h155q-13 -24 -17 -44t-4 -62v-485h74q61 0 101.5 10t86.5 36z" />
<glyph unicode="M" horiz-adv-x="814" d="M196 419v-313q0 -42 4 -62t17 -44h-141q13 24 17 43.5t4 62.5v470l-53 91h161q-1 -8 -1 -18q0 -31 18 -64l191 -359l172 341q21 42 21 76l-2 24h138q-13 -24 -17 -44t-4 -62v-455q0 -42 4 -62t17 -44h-155q13 24 17 44t4 62v313l-201 -382z" />
<glyph unicode="N" horiz-adv-x="712" d="M196 459v-353q0 -42 4 -62.5t17 -43.5h-141q13 24 17 43.5t4 62.5v487l-55 74h153q9 -38 39 -79l286 -390v363q0 43 -4 62.5t-17 43.5h141q-13 -24 -17 -44t-4 -62v-455q0 -42 4 -62.5t17 -43.5h-126q-4 31 -32 69z" />
<glyph unicode="O" horiz-adv-x="789" d="M411 682q149 0 243 -98q88 -94 88 -247t-102 -252.5t-259 -99.5q-148 0 -240.5 94.5t-92.5 244.5q0 156 102.5 257t260.5 101zM390 604q-100 0 -161 -69t-61 -181q0 -124 68 -207.5t169 -83.5q94 0 155.5 70.5t61.5 177.5q0 130 -64.5 211.5t-167.5 81.5z" />
<glyph unicode="P" horiz-adv-x="523" d="M205 278v-172q0 -42 4 -62t17 -44h-155q13 25 17 44t4 62v455q0 43 -4 62t-17 44h143q124 0 192 -46q76 -52 76 -144q0 -60 -34.5 -106.5t-96.5 -69.5q-52 -20 -146 -23zM205 597v-251q73 1 115 34.5t42 90.5q0 36 -18 65t-49 44q-34 16 -90 17z" />
<glyph unicode="Q" horiz-adv-x="789" d="M632 77q14 -29 60 -74.5t85 -70.5q-47 -31 -75 -31q-34 0 -83 33q-65 45 -94 77q-68 -26 -143 -26q-149 0 -241.5 94t-92.5 245q0 157 102.5 257.5t261.5 100.5q148 0 239 -94t91 -246q0 -159 -110 -265zM390 604q-100 0 -161 -69t-61 -181q0 -124 68 -207.5t169 -83.5 q94 0 155.5 70.5t61.5 177.5q0 130 -64.5 211.5t-167.5 81.5z" />
<glyph unicode="R" horiz-adv-x="582" d="M205 293v-187q0 -43 4 -62.5t17 -43.5h-155q13 25 17 44t4 62v455q0 43 -4 62t-17 44h156q122 0 186 -44q72 -50 72 -134q0 -120 -150 -181q153 -204 236 -293q-38 -22 -66 -22q-45 0 -141 112zM205 594v-244q73 2 116.5 37.5t43.5 92.5q0 71 -62 99q-33 15 -98 15z" />
<glyph unicode="S" horiz-adv-x="478" d="M397 665v-119q-74 56 -140 56q-43 0 -69 -23t-26 -60q0 -36 25 -65t95 -72q74 -47 99 -73q47 -49 47 -120q0 -90 -66 -147t-170 -57q-64 0 -136 25v128q45 -40 79 -56.5t73 -16.5q46 0 77.5 31t31.5 76q0 39 -23 64q-19 20 -83 61q-81 52 -114 88q-46 51 -46 115 q0 42 19.5 79.5t54.5 61.5q56 41 150 41q62 0 122 -17z" />
<glyph unicode="T" horiz-adv-x="543" d="M323 595v-489q0 -43 4 -62.5t17 -43.5h-155q13 24 17 44t4 62v488q-115 0 -194 -38l39 111h479l-38 -104q-58 32 -173 32z" />
<glyph unicode="U" horiz-adv-x="696" d="M491 0v51q-86 -66 -184 -66q-109 0 -168 62q-29 31 -40.5 70t-11.5 110v334q0 43 -4 62t-17 44h155q-13 -24 -17 -43.5t-4 -62.5v-305q0 -56 5.5 -84t21.5 -52q37 -55 113 -55q67 0 111 46q40 43 40 132v318q0 43 -4 62.5t-17 43.5h155q-13 -24 -17 -44t-4 -62v-455 q0 -43 4 -62.5t17 -43.5h-134z" />
<glyph unicode="V" horiz-adv-x="632" d="M365 0h-90l-203 542q-29 77 -63 125h154q-2 -11 -2 -22q0 -28 20 -84l146 -402l139 388q20 57 20 85q0 15 -6 35h143q-17 -26 -28.5 -50.5t-34.5 -87.5z" />
<glyph unicode="W" horiz-adv-x="877" d="M441 390l-123 -390h-75l-174 540q-28 87 -59 127h162q-6 -18 -6 -38q0 -32 14 -81l105 -345l159 464l169 -464l96 339q13 45 13 79q0 20 -10 46h155q-34 -46 -56 -118l-164 -549h-74z" />
<glyph unicode="X" horiz-adv-x="654" d="M386 348l152 -236q46 -72 96 -112h-181q1 6 1 14q0 31 -25 69l-112 174l-107 -172q-25 -39 -25 -71v-14h-167q61 54 106 123l140 217l-124 192q-59 91 -104 135h181q-3 -13 -3 -19q0 -35 34 -88l84 -130l84 136q30 47 30 78q0 8 -4 23h172q-55 -47 -106 -128z" />
<glyph unicode="Y" horiz-adv-x="607" d="M365 273v-167q0 -43 4 -62.5t17 -43.5h-155q13 24 17 44t4 62v167l-167 287q-35 60 -76 107h167v-12q0 -38 27 -86l114 -201l102 189q28 52 28 88q0 5 -3 22h154q-39 -44 -82 -121z" />
<glyph unicode="Z" horiz-adv-x="557" d="M485 0h-453l322 591h-73q-75 0 -121.5 -10t-90.5 -35l40 121h413l-320 -591h91q122 0 232 42z" />
<glyph unicode="[" horiz-adv-x="322" d="M78 667h198v-58h-92v-698h92v-58h-198v814z" />
<glyph unicode="\" horiz-adv-x="492" d="M0 667h104q5 -34 34 -90l299 -576q38 -71 64 -103h-106q0 19 -24 66l-316 614q-29 57 -55 89z" />
<glyph unicode="]" horiz-adv-x="322" d="M245 -147h-198v58h92v698h-92v58h198v-814z" />
<glyph unicode="^" d="M121 365h-96l166 304h118l165 -304h-96l-129 233z" />
<glyph unicode="_" d="M0 -65h500v-66h-500v66z" />
<glyph unicode="`" d="M181 694l127 -142l-17 -23l-162 99z" />
<glyph unicode="a" horiz-adv-x="470" d="M293 0v47l-39 -39q-38 -19 -73 -19q-64 0 -102.5 35.5t-38.5 94.5q0 97 120 137l133 45v21q0 47 -16 64q-22 22 -61 22q-64 0 -145 -47l21 101q61 16 126 16q104 0 146 -45q19 -20 25 -42.5t6 -72.5v-212q0 -42 4 -62.5t17 -43.5h-123zM293 222h-111q-39 -29 -39 -76 q0 -38 20 -59t55 -21q37 0 75 31v125z" />
<glyph unicode="b" horiz-adv-x="517" d="M179 415l44 45q33 18 73 18q79 0 129.5 -58t50.5 -148q0 -107 -65 -186q-69 -86 -209 -86h-146q13 25 17 44t4 62v454q0 50 -21 90l139 48q-16 -54 -16 -120v-163zM179 362v-285q36 -10 65 -10q61 0 92.5 43t31.5 126q0 77 -29.5 120t-81.5 43q-37 0 -78 -37z" />
<glyph unicode="c" horiz-adv-x="433" d="M387 467l1 -101q-66 42 -122 42q-54 0 -85.5 -42t-31.5 -113q0 -85 40 -136t106 -51q54 0 118 35l-36 -92q-53 -20 -110 -20q-102 0 -164 64t-62 169q0 114 73.5 185t191.5 71q42 0 81 -11z" />
<glyph unicode="d" horiz-adv-x="519" d="M340 0v42l-51 -43q-34 -10 -62 -10q-81 0 -133.5 61t-52.5 155q0 114 70.5 188t179.5 74q13 0 49 -3v96q0 53 -21 90l139 48q-16 -54 -16 -120v-472q0 -43 4 -62.5t17 -43.5h-123zM340 98v279q-36 20 -72 20q-55 0 -87 -45.5t-32 -125.5q0 -78 35 -118q33 -38 84 -38 q37 0 72 28z" />
<glyph unicode="e" horiz-adv-x="488" d="M446 217h-297q6 -73 43 -111t101 -38q65 0 148 41l-38 -92q-60 -28 -136 -28q-110 0 -168 65q-58 64 -58 169q0 110 64 182.5t161 72.5q85 0 133 -56t48 -156q0 -29 -1 -49zM149 289h196q-3 123 -95 123q-89 0 -101 -123z" />
<glyph unicode="f" horiz-adv-x="303" d="M291 467v-68h-109v-293q0 -42 4 -62t17 -44h-144q13 24 17 44t4 62v293h-61l61 66v36q0 180 167 180q35 0 76 -10l-44 -88q-28 20 -47 20q-50 0 -50 -73v-63h109z" />
<glyph unicode="g" horiz-adv-x="494" d="M472 442v-69h-61q10 -26 10 -51q0 -75 -52.5 -123.5t-133.5 -48.5q-18 0 -46 4q-18 -17 -18 -29q0 -22 46 -23l92 -2q61 -2 95 -27.5t34 -70.5q0 -70 -66 -115t-168 -45q-70 0 -117 25.5t-47 62.5q0 24 31 50l49 41q-60 18 -60 58q0 27 24 47l52 44q-81 49 -81 143 q0 72 51 118.5t129 46.5q66 0 124 -36h113zM231 416q-31 0 -49.5 -23.5t-18.5 -64.5q0 -52 22.5 -84t57.5 -32q31 0 50.5 25.5t19.5 66.5q0 50 -22.5 81t-59.5 31zM279 15l-99 1q-36 -26 -36 -51q0 -23 25.5 -37t66.5 -14q48 0 75 16t27 45q0 22 -13.5 31t-45.5 9z" />
<glyph unicode="h" horiz-adv-x="513" d="M179 415l38 41q41 22 81 22q71 0 110 -44q17 -19 23.5 -45.5t6.5 -76.5v-206q0 -42 4 -62t17 -44h-144q13 24 17 43.5t4 62.5v204q0 47 -17 69t-54 22q-44 0 -86 -38v-257q0 -42 4 -62t17 -44h-144q13 25 17 44t4 62v454q0 50 -21 90l140 48q-17 -55 -17 -120v-163z" />
<glyph unicode="i" horiz-adv-x="256" d="M200 0h-144q13 25 17 44t4 62v255q0 43 -4 62t-17 44h144q-13 -24 -17 -44t-4 -62v-255q0 -42 4 -62t17 -44zM128 642q29 0 48.5 -18.5t19.5 -45.5q0 -25 -20 -43.5t-47 -18.5q-28 0 -48 18.5t-20 44.5t20 44.5t47 18.5z" />
<glyph unicode="j" horiz-adv-x="256" d="M179 361v-298q0 -101 -34 -155q-35 -55 -78 -55q-30 0 -59 20q39 35 54 77.5t15 120.5v290q0 42 -4 62t-17 44h144q-13 -24 -17 -44t-4 -62zM127 642q29 0 48.5 -18.5t19.5 -45.5q0 -25 -20 -43.5t-48 -18.5t-48 18.5t-20 44.5t20 44.5t48 18.5z" />
<glyph unicode="k" horiz-adv-x="488" d="M179 208v-102q0 -42 4 -62t17 -44h-144q13 25 17 44t4 62v454q0 50 -21 90l139 48q-16 -54 -16 -120v-295l103 115q24 26 24 49q0 10 -6 20h169q-40 -25 -86 -77l-121 -134l131 -153l44 -51q25 -29 49 -52h-162q4 12 4 17q0 19 -23 46z" />
<glyph unicode="l" horiz-adv-x="256" d="M200 0h-144q13 25 17 44t4 62v453q0 50 -21 91l139 48q-16 -54 -16 -120v-472q0 -42 4 -62t17 -44z" />
<glyph unicode="m" horiz-adv-x="761" d="M180 467v-54l49 47q35 18 72 18q88 0 121 -69l48 51q36 18 77 18q67 0 105 -38q20 -20 27.5 -45t7.5 -71v-218q0 -43 4 -62.5t17 -43.5h-144q13 24 17 44t4 62v220q0 35 -19 54t-53 19q-39 0 -81 -37v-256q0 -42 4 -62t17 -44h-144q13 24 17 43.5t4 62.5v223q0 70 -67 70 q-42 0 -84 -41v-252q0 -66 22 -106h-145q13 25 17 44t4 62v255q0 43 -4 62t-17 44h124z" />
<glyph unicode="n" horiz-adv-x="513" d="M179 467v-52l38 41q43 22 81 22q71 0 110 -44q17 -19 23.5 -45.5t6.5 -76.5v-206q0 -42 4 -62t17 -44h-144q13 24 17 43.5t4 62.5v204q0 47 -17 69t-54 22q-44 0 -86 -38v-257q0 -42 4 -62t17 -44h-144q13 25 17 44t4 62v255q0 43 -4 62t-17 44h123z" />
<glyph unicode="o" horiz-adv-x="535" d="M279 478q96 0 155.5 -67.5t59.5 -176.5q0 -106 -67.5 -175.5t-170.5 -69.5q-96 0 -155.5 64.5t-59.5 168.5q0 113 67 182q72 74 171 74zM252 408q-47 0 -75.5 -38.5t-28.5 -103.5q0 -89 38.5 -148t96.5 -59q47 0 75 37.5t28 101.5q0 91 -38 150.5t-96 59.5z" />
<glyph unicode="p" horiz-adv-x="515" d="M179 467v-53l47 45q38 19 70 19q77 0 127.5 -62.5t50.5 -156.5q0 -110 -67 -187.5t-162 -77.5q-23 0 -66 8v-43q0 -42 4 -62.5t17 -43.5h-144q13 25 17 44t4 62v402q0 43 -4 62t-17 44h123zM179 361v-278q37 -17 72 -17q56 0 85.5 43t29.5 125q0 77 -28.5 120t-79.5 43 q-39 0 -79 -36z" />
<glyph unicode="q" horiz-adv-x="510" d="M333 47l-45 -43q-40 -15 -70 -15q-75 0 -126 61.5t-51 151.5q0 125 81 204q66 63 176 63q44 0 162 -15q-15 -22 -20 -44t-5 -67v-384q0 -42 4 -62.5t17 -43.5h-144q13 24 17 43.5t4 62.5v88zM333 107v274q-39 20 -72 20q-53 0 -82.5 -43.5t-29.5 -120.5 q0 -78 28.5 -123.5t76.5 -45.5q39 0 79 39z" />
<glyph unicode="r" horiz-adv-x="331" d="M179 467v-51l41 44q28 16 50 16t46 -10l-27 -82q-18 11 -41 11q-54 0 -69 -57v-232q0 -42 4 -62.5t17 -43.5h-144q13 25 17 44t4 62v255q0 43 -4 62t-17 44h123z" />
<glyph unicode="s" horiz-adv-x="397" d="M324 465v-97q-66 44 -111 44q-30 0 -49 -15.5t-19 -39.5q0 -25 18.5 -42.5t63.5 -34.5q70 -27 99.5 -58.5t29.5 -79.5q0 -67 -50.5 -110t-128.5 -43q-71 0 -130 25l4 97q77 -56 135 -56q34 0 53.5 16.5t19.5 45.5q0 22 -15 37t-51 29q-80 32 -112.5 65t-32.5 83 q0 64 51 105.5t130 41.5q46 0 95 -13z" />
<glyph unicode="t" horiz-adv-x="344" d="M199 587v-120h116v-69h-116v-256q0 -74 65 -74q31 0 79 24l-41 -79q-39 -21 -80 -21q-69 0 -102 47q-23 34 -23 107v251h-72z" />
<glyph unicode="u" horiz-adv-x="513" d="M334 0v52l-38 -41q-43 -22 -81 -22q-71 0 -110 44q-17 19 -23.5 45.5t-6.5 76.5v206q0 42 -4 61.5t-17 44.5h144q-13 -24 -17 -43.5t-4 -62.5v-204q0 -47 17 -69t54 -22q44 0 86 38v257q0 42 -4 62t-17 44h144q-13 -24 -17 -43.5t-4 -62.5v-255q0 -42 4 -62t17 -44h-123z " />
<glyph unicode="v" horiz-adv-x="455" d="M268 0h-80l-127 358q-24 66 -59 109h143q-4 -15 -4 -23q0 -16 15 -61l78 -239l80 241q14 41 14 54q0 7 -6 28h132q-34 -38 -56 -99z" />
<glyph unicode="w" horiz-adv-x="625" d="M231 0h-77l-100 363q-18 66 -47 104h147q-11 -21 -11 -40q0 -10 7 -39l52 -216l87 295h58l90 -295l52 209q9 38 9 49q0 15 -9 37h129q-28 -42 -47 -110l-104 -357h-76l-79 274z" />
<glyph unicode="x" horiz-adv-x="473" d="M292 244l101 -162q33 -53 67 -82h-149q1 4 1 9q0 17 -22 53l-60 96l-59 -96q-19 -30 -19 -51q0 -1 2 -11h-136q41 39 69 85l95 150l-96 153q-31 50 -63 79h150l-1 -12q-1 -16 18 -48l54 -88l50 80q20 31 20 48q0 3 -3 20h137q-32 -31 -74 -96z" />
<glyph unicode="y" horiz-adv-x="443" d="M232 139l74 242q7 21 7 44q0 19 -8 42h133q-23 -30 -51 -114l-101 -307q-40 -122 -65.5 -163t-62.5 -41q-24 0 -55 15q39 50 61 103l18 42l-122 351q-24 70 -55 114h152q-10 -17 -10 -35q0 -22 10 -55z" />
<glyph unicode="z" horiz-adv-x="424" d="M361 0h-337l218 398h-20q-110 0 -188 -31l37 100h317l-215 -398q91 1 137 9t92 30z" />
<glyph unicode="{" horiz-adv-x="340" d="M202 502v-120q0 -47 -14.5 -75t-48.5 -47q34 -19 48.5 -47t14.5 -75v-120q0 -50 15.5 -68t58.5 -18h19v-79h-50q-76 0 -107.5 32.5t-31.5 112.5v140q0 41 -12 61t-43 30v62q31 10 43 30t12 61v140q0 80 31.5 112.5t107.5 32.5h50v-79h-19q-43 0 -58.5 -18t-15.5 -68z" />
<glyph unicode="|" d="M197 667h105v-834h-105v834z" />
<glyph unicode="}" horiz-adv-x="340" d="M137 18v120q0 47 14.5 75t48.5 47q-34 19 -48.5 47t-14.5 75v120q0 50 -15.5 68t-58.5 18h-19v79h50q76 0 107.5 -32.5t31.5 -112.5v-140q0 -41 12 -61t43 -30v-62q-31 -10 -43 -30t-12 -61v-140q0 -80 -31.5 -112.5t-107.5 -32.5h-50v79h19q43 0 58.5 18t15.5 68z" />
<glyph unicode="~" horiz-adv-x="667" d="M148 570l-54 43q54 122 140 122q37 0 112 -36q66 -31 92 -31q45 0 83 69l54 -43q-30 -64 -63.5 -93t-76.5 -29q-30 0 -110 37q-68 31 -95 31q-24 0 -42 -15.5t-40 -54.5z" />
<glyph unicode="&#xa1;" horiz-adv-x="303" d="M157 337l49 -141v-245q0 -39 3.5 -57.5t15.5 -40.5h-149q12 23 15.5 41.5t3.5 56.5v245l52 141h10zM152 527q31 0 53 -21t22 -50t-22 -49.5t-53 -20.5q-32 0 -53.5 20.5t-21.5 50.5q0 29 22 49.5t53 20.5z" />
<glyph unicode="&#xa2;" horiz-adv-x="470" d="M300 511v-340q7 -1 9 -1q56 0 119 36l-36 -92q-44 -17 -92 -20v-78h-46v80q-89 5 -144 68.5t-55 161.5q0 96 51.5 160.5t147.5 88.5v89h46v-83q12 1 24 1q40 0 77 -11l2 -101q-54 33 -103 41zM254 181v328q-91 -23 -91 -152q0 -64 24 -110t67 -66z" />
<glyph unicode="&#xa3;" horiz-adv-x="463" d="M399 0h-357q64 96 66 295q-39 -1 -66 -10v94q26 -10 67 -10q-3 55 -3 77q0 123 65 185q55 50 134 50q56 0 115 -28l-8 -100q-46 49 -99 49q-48 0 -75.5 -35t-27.5 -96q0 -9 5 -78q0 -11 1 -24h37q52 0 79 10v-94q-37 10 -76 10h-42q1 -55 -11 -116.5t-32 -103.5h105 q65 0 101 12t68 44z" />
<glyph unicode="&#xa4;" horiz-adv-x="594" d="M118 470l-73 73l42 42l73 -73q62 47 136 47q76 0 137 -47l75 75l42 -42l-75 -75q46 -62 46 -135q0 -74 -46 -138l73 -73l-42 -42l-73 73q-60 -47 -138 -47q-74 0 -135 46l-75 -74l-42 42l75 75q-47 63 -47 139q0 74 47 134zM296 488q-61 0 -105 -45.5t-44 -107.5 q0 -65 43.5 -110.5t105.5 -45.5t106 45.5t44 109.5q0 63 -44.5 108.5t-105.5 45.5z" />
<glyph unicode="&#xa5;" horiz-adv-x="564" d="M341 306v-200q0 -42 3.5 -62t16.5 -44h-148q13 23 16.5 43t3.5 63v200h-89q-39 0 -73 -10v94q26 -10 75 -10h41l-113 180l-30 51q-14 22 -42 56h154v-13q0 -43 26 -85l110 -184l96 172q26 49 26 88l-2 22h149q-25 -32 -33 -44q-2 -3 -7.5 -13l-15.5 -27.5l-21 -36.5 l-99 -166h32q49 0 75 10v-94q-36 10 -72 10h-79z" />
<glyph unicode="&#xa6;" d="M197 667h105v-341h-105v341zM197 153h105v-320h-105v320z" />
<glyph unicode="&#xa7;" horiz-adv-x="545" d="M415 656v-107q-69 60 -134 60q-33 0 -55 -18t-22 -44q0 -35 52 -72l102 -70q73 -49 99 -84.5t26 -84.5q0 -104 -106 -142q41 -34 56.5 -59.5t15.5 -60.5q0 -68 -54.5 -112t-138.5 -44q-77 0 -153 38v109q73 -71 163 -71q35 0 57.5 18t22.5 47q0 24 -14 40t-66 51l-84 58 q-64 44 -87 69q-33 39 -33 94q0 107 111 142q-40 32 -56 60t-16 65q0 65 52.5 105.5t135.5 40.5q66 0 126 -28zM320 312l-82 56q-36 -2 -57 -24t-21 -57q0 -47 40 -74l114 -75q31 2 51 24.5t20 55.5q0 50 -65 94z" />
<glyph unicode="&#xa8;" d="M171 651q23 0 39 -16.5t16 -39.5q0 -22 -16.5 -38t-38.5 -16q-23 0 -39 16.5t-16 38.5t16 38.5t39 16.5zM328 651q23 0 39 -16.5t16 -39.5q0 -22 -16.5 -38t-38.5 -16t-38.5 16.5t-16.5 38.5t16.5 38.5t38.5 16.5z" />
<glyph unicode="&#xa9;" horiz-adv-x="807" d="M523 528v-74q-48 35 -106 35q-63 0 -103 -43t-40 -112q0 -68 40.5 -111.5t103.5 -43.5q54 0 108 41l2 -77q-62 -18 -119 -18q-99 0 -160.5 56t-61.5 145q0 94 67.5 155t171.5 61q52 0 97 -14zM395 687q155 0 267.5 -107.5t112.5 -255.5q0 -144 -104.5 -244t-255.5 -100 q-157 0 -270 107t-113 255q0 145 105 245t258 100zM397 640q-130 0 -218 -85.5t-88 -211.5q0 -130 95.5 -223t227.5 -93q126 0 214 86.5t88 210.5q0 128 -95 222t-224 94z" />
<glyph unicode="&#xaa;" horiz-adv-x="324" d="M193 267v21l-17 -16q-27 -12 -49 -12q-42 0 -67.5 22t-25.5 58q0 59 79 84l80 25v8q0 28 -8 37q-13 13 -35 13q-41 0 -99 -32l16 69q41 11 84 11q69 0 97 -27q13 -13 17 -26.5t4 -44.5v-124q0 -42 16 -66h-92zM193 397h-63q-21 -15 -21 -42q0 -20 11 -31.5t31 -11.5 t42 16v69z" />
<glyph unicode="&#xab;" horiz-adv-x="450" d="M162 403h74q-18 -48 -49 -94t-61 -69q30 -23 61 -69t49 -94h-74q-21 45 -63.5 94t-76.5 69q34 20 76.5 69t63.5 94zM326 403h74q-17 -48 -48 -94t-61 -69q30 -23 61 -69t48 -94h-74q-20 44 -62.5 93.5t-76.5 69.5q34 20 76.5 69.5t62.5 93.5z" />
<glyph unicode="&#xac;" d="M364 0v190h-331v92h433v-282h-102z" />
<glyph unicode="&#xad;" horiz-adv-x="340" d="M47 184v112q31 -8 69 -8h109q38 0 69 8v-112q-31 8 -69 8h-109q-38 0 -69 -8z" />
<glyph unicode="&#xae;" horiz-adv-x="807" d="M353 300v-101q0 -41 16 -66h-112q16 25 16 66v268q0 41 -16 66h108q79 0 119 -26q47 -31 47 -83q0 -72 -92 -107q95 -119 148 -172q-31 -16 -48 -16q-32 0 -92 67zM353 483v-137q42 1 67.5 21.5t25.5 52.5q0 63 -93 63zM395 687q155 0 267.5 -107.5t112.5 -255.5 q0 -144 -104.5 -244t-255.5 -100q-157 0 -270 107t-113 255q0 145 105 245t258 100zM397 640q-130 0 -218 -85.5t-88 -211.5q0 -130 95.5 -223t227.5 -93q126 0 214 86.5t88 210.5q0 128 -95 222t-224 94z" />
<glyph unicode="&#xaf;" d="M374 619v-58h-247v58h247z" />
<glyph unicode="&#xb0;" horiz-adv-x="380" d="M189 679q58 0 98.5 -39.5t40.5 -95.5t-40.5 -96t-97.5 -40q-58 0 -98.5 40t-40.5 97q0 55 41 94.5t97 39.5zM190 623q-33 0 -57 -23t-24 -55q0 -34 23.5 -57.5t57.5 -23.5q33 0 56.5 23.5t23.5 56.5q0 32 -23.5 55.5t-56.5 23.5z" />
<glyph unicode="&#xb1;" horiz-adv-x="589" d="M56 384h199v193h80v-193h199v-80h-199v-176h-80v176h-199v80zM56 78h478v-80h-478v80z" />
<glyph unicode="&#xb4;" d="M334 694l52 -66l-161 -99l-18 23z" />
<glyph unicode="&#xb5;" horiz-adv-x="516" d="M172 -2v-39q0 -43 4 -63t17 -43h-138q13 25 17 44t4 62v402q0 42 -4 61.5t-17 44.5h144q-13 -24 -17 -43.5t-4 -62.5v-204q0 -47 17 -69t54 -22q44 0 86 38v257q0 42 -4 62t-17 44h144q-13 -24 -17 -43.5t-4 -62.5v-255q0 -42 4 -62t17 -44h-123v52l-38 -41 q-41 -21 -78 -21q-23 0 -47 8z" />
<glyph unicode="&#xb6;" horiz-adv-x="537" d="M222 -147v445h-14q-78 0 -126.5 50.5t-48.5 131.5q0 52 21.5 94.5t59.5 64.5q49 28 135 28h246v-62h-55v-752h-70v752h-78v-752h-70z" />
<glyph unicode="&#xb7;" horiz-adv-x="276" d="M138 324q35 0 58.5 -22.5t23.5 -55.5q0 -31 -24 -53.5t-58 -22.5t-58 22.5t-24 54.5t24 54.5t58 22.5z" />
<glyph unicode="&#xb8;" d="M281 0h43l-30 -50q7 1 19 1q31 0 49.5 -18t18.5 -48q0 -39 -31.5 -65.5t-77.5 -26.5q-29 0 -59 13l15 25q21 -5 33 -5q26 0 41 12.5t15 34.5q0 34 -38 34q-8 0 -23 -4l-17 28z" />
<glyph unicode="&#xba;" horiz-adv-x="366" d="M191 555q63 0 102 -40.5t39 -106.5q0 -64 -44 -106t-112 -42q-64 0 -103 39t-39 102q0 66 45 110t112 44zM174 507q-28 0 -44.5 -21.5t-16.5 -58.5q0 -51 23 -85t57 -34q28 0 44 21t16 58q0 51 -22.5 85.5t-56.5 34.5z" />
<glyph unicode="&#xbb;" horiz-adv-x="450" d="M288 77h-74q18 48 48.5 94t60.5 69q-29 22 -60 68.5t-49 94.5h74q20 -44 62.5 -93.5t76.5 -69.5q-34 -20 -76.5 -69.5t-62.5 -93.5zM123 77h-74q18 48 49 94t60 69q-29 22 -60 68.5t-49 94.5h74q20 -44 62.5 -93.5t77.5 -69.5q-35 -20 -77.5 -69.5t-62.5 -93.5z" />
<glyph unicode="&#xbc;" horiz-adv-x="856" d="M236 685v-346q0 -45 15 -72h-105q15 27 15 72v239h-57zM555 667h92q-21 -24 -49 -78l-276 -532q-20 -37 -20 -52q0 -3 1 -5h-94q25 30 57 90l260 499q27 52 29 78zM768 119v-59q0 -36 12 -60h-99q12 24 12 60v59h-170v55q10 7 20 21l139 177q13 17 16 28h77 q-7 -30 -7 -70v-154h55v-57h-55zM694 176v123l-95 -123h95z" />
<glyph unicode="&#xbd;" horiz-adv-x="856" d="M236 685v-346q0 -45 15 -72h-105q15 27 15 72v239h-57zM555 667h92q-21 -24 -49 -78l-276 -532q-20 -37 -20 -52q0 -3 1 -5h-94q25 30 57 90l260 499q27 52 29 78zM792 0h-274q69 81 140 179q61 83 61 122q0 21 -13.5 34.5t-35.5 13.5q-25 0 -40.5 -18t-15.5 -47 q0 -13 7 -40l-82 24l-2 22q0 51 38 85t96 34q56 0 91 -30t35 -78q0 -52 -51 -119l-96 -125h54q61 0 119 32z" />
<glyph unicode="&#xbe;" horiz-adv-x="856" d="M49 667h280q-12 -18 -29 -48l-71 -125q85 -29 85 -110q0 -56 -41 -91t-106 -35q-76 0 -128 51l43 63q24 -30 42.5 -42t41.5 -12q30 0 50 19t20 48q0 31 -25 50t-67 19h-18l88 156h-40q-72 0 -124 -24zM555 667h92q-21 -24 -49 -78l-276 -532q-19 -37 -19 -57h-94 q25 30 57 90l260 499q28 54 29 78zM768 119v-59q0 -36 12 -60h-99q12 24 12 60v59h-170v55q9 7 20 21l139 177q12 15 16 28h77q-7 -32 -7 -70v-154h55v-57h-55zM694 176v123l-95 -123h95z" />
<glyph unicode="&#xbf;" horiz-adv-x="446" d="M413 -7l-11 -116q-81 -36 -153 -36q-91 0 -150 54t-59 137q0 66 38 115q18 23 33 35t87 60q54 37 86 83h12l7 -105q-17 -20 -54 -49q-56 -41 -74.5 -67.5t-18.5 -63.5q0 -47 32 -78.5t80 -31.5q60 0 145 63zM280 527q31 0 53 -21t22 -50t-22 -49.5t-53 -20.5 q-32 0 -54 20.5t-22 50.5q0 29 22.5 49.5t53.5 20.5z" />
<glyph unicode="&#xc0;" horiz-adv-x="681" d="M449 214h-225l-50 -111q-13 -28 -13 -62q0 -16 8 -41h-160q28 34 61 105l269 586l283 -596q32 -66 56 -95h-169q9 22 9 41q0 27 -17 63zM414 292l-79 173l-76 -173h155zM228 860l150 -116l-13 -25l-176 71z" />
<glyph unicode="&#xc1;" horiz-adv-x="681" d="M449 214h-225l-50 -111q-13 -28 -13 -62q0 -16 8 -41h-160q28 34 61 105l269 586l283 -596q32 -66 56 -95h-169q9 22 9 41q0 27 -17 63zM414 292l-79 173l-76 -173h155zM465 860l39 -70l-175 -71l-14 25z" />
<glyph unicode="&#xc2;" horiz-adv-x="681" d="M449 214h-225l-50 -111q-13 -28 -13 -62q0 -16 8 -41h-160q28 34 61 105l269 586l283 -596q32 -66 56 -95h-169q9 22 9 41q0 27 -17 63zM414 292l-79 173l-76 -173h155zM348 873l133 -137l-15 -18l-118 69l-118 -69l-15 18z" />
<glyph unicode="&#xc3;" horiz-adv-x="681" d="M449 214h-225l-50 -111q-13 -28 -13 -62q0 -16 8 -41h-160q28 34 61 105l269 586l283 -596q32 -66 56 -95h-169q9 22 9 41q0 27 -17 63zM414 292l-79 173l-76 -173h155zM239 741h-21q19 84 89 84q17 0 50 -11l45 -15q28 -9 42 -9q24 0 39 26h21q-6 -38 -29.5 -61.5 t-55.5 -23.5q-18 0 -53 11l-48 15q-27 9 -40 9q-25 0 -39 -25z" />
<glyph unicode="&#xc4;" horiz-adv-x="681" d="M449 214h-225l-50 -111q-13 -28 -13 -62q0 -16 8 -41h-160q28 34 61 105l269 586l283 -596q32 -66 56 -95h-169q9 22 9 41q0 27 -17 63zM414 292l-79 173l-76 -173h155zM256 833q23 0 39 -16.5t16 -39.5q0 -22 -16.5 -38t-38.5 -16t-38.5 16.5t-16.5 38.5t16.5 38.5 t38.5 16.5zM438 833q23 0 39 -16.5t16 -39.5q0 -22 -16.5 -38t-38.5 -16t-38.5 16.5t-16.5 38.5t16.5 38.5t38.5 16.5z" />
<glyph unicode="&#xc5;" horiz-adv-x="681" d="M449 214h-225l-50 -111q-13 -28 -13 -62q0 -16 8 -41h-160q28 34 61 105l269 586l283 -596q32 -66 56 -95h-169q9 22 9 41q0 27 -17 63zM414 292l-79 173l-76 -173h155zM353 888q38 0 61 -23.5t23 -62.5q0 -37 -26 -61.5t-66 -24.5q-38 0 -61.5 22.5t-23.5 59.5 q0 39 26.5 64.5t66.5 25.5zM343 860q-17 0 -26.5 -12.5t-9.5 -34.5q0 -29 13.5 -49t33.5 -20q16 0 26 12.5t10 33.5q0 29 -13.5 49.5t-33.5 20.5z" />
<glyph unicode="&#xc6;" horiz-adv-x="860" d="M439 209h-193l-72 -139q-20 -39 -20 -54q0 -7 5 -16h-159q25 19 40.5 39.5t39.5 64.5l259 479q27 48 27 68q0 4 -3 16h449l-51 -107q-47 34 -138 34h-71v-214h236l-55 -109q-50 38 -133 38h-48v-236h73q110 0 206 37l-50 -110h-363q13 24 17 43.5t4 62.5v103zM439 287 v297l-154 -297h154z" />
<glyph unicode="&#xc7;" horiz-adv-x="613" d="M404 -14l-22 -36q7 1 19 1q31 0 49.5 -18t18.5 -48q0 -39 -31.5 -65.5t-77.5 -26.5q-29 0 -59 13l15 25q20 -5 33 -5q26 0 41 12.5t15 34.5q0 34 -38 34q-8 0 -23 -4l-17 28l35 56q-146 14 -230 103.5t-84 231.5q0 157 105 258.5t269 101.5q82 0 148 -23l-1 -110 q-72 55 -165 55q-105 0 -170.5 -74.5t-65.5 -194.5q0 -119 66.5 -194t171.5 -75q88 0 169 64l3 -115q-81 -27 -174 -29z" />
<glyph unicode="&#xc8;" horiz-adv-x="505" d="M205 380h236l-55 -109q-51 38 -133 38h-48v-236h73q63 0 106.5 8t99.5 29l-50 -110h-363q13 25 17 44t4 62v455q0 43 -4 62t-17 44h394l-51 -107q-47 34 -138 34h-71v-214zM162 860l150 -116l-13 -25l-176 71z" />
<glyph unicode="&#xc9;" horiz-adv-x="505" d="M205 380h236l-55 -109q-51 38 -133 38h-48v-236h73q63 0 106.5 8t99.5 29l-50 -110h-363q13 25 17 44t4 62v455q0 43 -4 62t-17 44h394l-51 -107q-47 34 -138 34h-71v-214zM390 860l39 -70l-175 -71l-14 25z" />
<glyph unicode="&#xca;" horiz-adv-x="505" d="M205 380h236l-55 -109q-51 38 -133 38h-48v-236h73q63 0 106.5 8t99.5 29l-50 -110h-363q13 25 17 44t4 62v455q0 43 -4 62t-17 44h394l-51 -107q-47 34 -138 34h-71v-214zM278 873l133 -137l-15 -18l-118 69l-118 -69l-15 18z" />
<glyph unicode="&#xcb;" horiz-adv-x="505" d="M205 380h236l-55 -109q-51 38 -133 38h-48v-236h73q63 0 106.5 8t99.5 29l-50 -110h-363q13 25 17 44t4 62v455q0 43 -4 62t-17 44h394l-51 -107q-47 34 -138 34h-71v-214zM180 833q23 0 39 -16.5t16 -39.5q0 -22 -16.5 -38t-38.5 -16t-38.5 16.5t-16.5 38.5t16.5 38.5 t38.5 16.5zM362 833q23 0 39 -16.5t16 -39.5q0 -22 -16.5 -38t-38.5 -16t-38.5 16.5t-16.5 38.5t16.5 38.5t38.5 16.5z" />
<glyph unicode="&#xcc;" horiz-adv-x="298" d="M226 0h-155q13 24 17 43.5t4 62.5v455q0 42 -4 62t-17 44h155q-13 -24 -17 -44t-4 -62v-455q0 -43 4 -62.5t17 -43.5zM36 860l150 -116l-13 -25l-176 71z" />
<glyph unicode="&#xcd;" horiz-adv-x="298" d="M226 0h-155q13 25 17 44t4 62v455q0 43 -4 62t-17 44h155q-13 -24 -17 -43.5t-4 -62.5v-455q0 -43 4 -62.5t17 -43.5zM287 860l39 -70l-175 -71l-14 25z" />
<glyph unicode="&#xce;" horiz-adv-x="298" d="M227 0h-155q13 24 17 43.5t4 62.5v455q0 42 -4 62t-17 44h155q-13 -24 -17 -44t-4 -62v-455q0 -43 4 -62.5t17 -43.5zM156 873l133 -137l-15 -18l-118 69l-118 -69l-15 18z" />
<glyph unicode="&#xcf;" horiz-adv-x="298" d="M227 0h-155q13 23 17 43.5t4 62.5v455q0 42 -4 62t-17 44h155q-13 -24 -17 -44t-4 -62v-455q0 -43 4 -62.5t17 -43.5zM78 833q23 0 39 -16.5t16 -39.5q0 -22 -16.5 -38t-38.5 -16t-38.5 16.5t-16.5 38.5t16.5 38.5t38.5 16.5zM233 833q23 0 39 -16.5t16 -39.5 q0 -22 -16.5 -38t-38.5 -16q-23 0 -39 16.5t-16 38.5t16 38.5t39 16.5z" />
<glyph unicode="&#xd0;" horiz-adv-x="671" d="M100 309h-40v71h40v181q0 41 -4.5 62t-17.5 44h167q176 0 275 -90q104 -93 104 -246q0 -161 -118 -254q-97 -77 -272 -77h-155q14 24 17.5 43t3.5 63v203zM213 309v-239q118 3 182 44q52 33 80.5 90.5t28.5 128.5q0 77 -33.5 138t-92.5 93q-58 30 -165 33v-217h123v-71 h-123z" />
<glyph unicode="&#xd1;" horiz-adv-x="712" d="M196 459v-353q0 -42 4 -62.5t17 -43.5h-141q13 24 17 43.5t4 62.5v487l-55 74h153q9 -38 39 -79l286 -390v363q0 43 -4 62.5t-17 43.5h141q-13 -24 -17 -44t-4 -62v-455q0 -42 4 -62.5t17 -43.5h-126q-4 31 -32 69zM255 741h-21q19 84 89 84q17 0 50 -11l45 -15 q28 -9 42 -9q24 0 39 26h21q-6 -38 -29.5 -61.5t-55.5 -23.5q-18 0 -53 11l-48 15q-27 9 -40 9q-25 0 -39 -25z" />
<glyph unicode="&#xd2;" horiz-adv-x="789" d="M411 682q149 0 243 -98q88 -94 88 -247t-102 -252.5t-259 -99.5q-148 0 -240.5 94.5t-92.5 244.5q0 156 102.5 257t260.5 101zM390 604q-100 0 -161 -69t-61 -181q0 -124 68 -207.5t169 -83.5q94 0 155.5 70.5t61.5 177.5q0 130 -64.5 211.5t-167.5 81.5zM279 860 l150 -116l-13 -25l-176 71z" />
<glyph unicode="&#xd3;" horiz-adv-x="789" d="M411 682q149 0 243 -98q88 -94 88 -247t-102 -252.5t-259 -99.5q-148 0 -240.5 94.5t-92.5 244.5q0 156 102.5 257t260.5 101zM390 604q-100 0 -161 -69t-61 -181q0 -124 68 -207.5t169 -83.5q94 0 155.5 70.5t61.5 177.5q0 130 -64.5 211.5t-167.5 81.5zM528 860l39 -70 l-175 -71l-14 25z" />
<glyph unicode="&#xd4;" horiz-adv-x="789" d="M411 682q149 0 243 -98q88 -94 88 -247t-102 -252.5t-259 -99.5q-148 0 -240.5 94.5t-92.5 244.5q0 156 102.5 257t260.5 101zM390 604q-100 0 -161 -69t-61 -181q0 -124 68 -207.5t169 -83.5q94 0 155.5 70.5t61.5 177.5q0 130 -64.5 211.5t-167.5 81.5zM414 873 l133 -137l-15 -18l-118 69l-118 -69l-15 18z" />
<glyph unicode="&#xd5;" horiz-adv-x="789" d="M411 682q149 0 243 -98q88 -94 88 -247t-102 -252.5t-259 -99.5q-148 0 -240.5 94.5t-92.5 244.5q0 156 102.5 257t260.5 101zM390 604q-100 0 -161 -69t-61 -181q0 -124 68 -207.5t169 -83.5q94 0 155.5 70.5t61.5 177.5q0 130 -64.5 211.5t-167.5 81.5zM312 741h-21 q19 84 89 84q17 0 50 -11l45 -15q29 -9 42 -9q24 0 39 26h21q-6 -38 -29.5 -61.5t-55.5 -23.5q-18 0 -53 11l-48 15q-27 9 -40 9q-25 0 -39 -25z" />
<glyph unicode="&#xd6;" horiz-adv-x="789" d="M411 682q149 0 243 -98q88 -94 88 -247t-102 -252.5t-259 -99.5q-148 0 -240.5 94.5t-92.5 244.5q0 156 102.5 257t260.5 101zM390 604q-100 0 -161 -69t-61 -181q0 -124 68 -207.5t169 -83.5q94 0 155.5 70.5t61.5 177.5q0 130 -64.5 211.5t-167.5 81.5zM323 833 q23 0 39 -16.5t16 -39.5q0 -22 -16.5 -38t-38.5 -16q-23 0 -39 16.5t-16 38.5t16 38.5t39 16.5zM505 833q23 0 39 -16.5t16 -39.5q0 -22 -16.5 -38t-38.5 -16q-23 0 -39 16.5t-16 38.5t16 38.5t39 16.5z" />
<glyph unicode="&#xd7;" horiz-adv-x="589" d="M135 556l159 -159l159 159l57 -56l-159 -160l159 -159l-57 -57l-159 159l-159 -159l-57 57l159 159l-159 160z" />
<glyph unicode="&#xd8;" horiz-adv-x="789" d="M663 695l-49 -76q128 -94 128 -276q0 -157 -100.5 -257t-257.5 -100q-88 0 -156 33l-30 -47h-70l49 76q-62 47 -95.5 118.5t-33.5 157.5q0 155 102 256t258 101q88 0 155 -31l29 45h71zM554 524l-272 -421q58 -39 123 -39q95 0 156 70.5t61 181.5q0 124 -68 208zM238 146 l273 421q-51 36 -120 36q-100 0 -161.5 -68.5t-61.5 -180.5q0 -123 70 -208z" />
<glyph unicode="&#xd9;" horiz-adv-x="696" d="M491 0v51q-86 -66 -184 -66q-109 0 -168 62q-29 31 -40.5 70t-11.5 110v334q0 43 -4 62t-17 44h155q-13 -24 -17 -43.5t-4 -62.5v-305q0 -56 5.5 -84t21.5 -52q37 -55 113 -55q67 0 111 46q40 43 40 132v318q0 43 -4 62.5t-17 43.5h155q-13 -24 -17 -44t-4 -62v-455 q0 -43 4 -62.5t17 -43.5h-134zM243 860l150 -116l-13 -25l-176 71z" />
<glyph unicode="&#xda;" horiz-adv-x="696" d="M491 0v51q-86 -66 -184 -66q-109 0 -168 62q-29 31 -40.5 70t-11.5 110v334q0 43 -4 62t-17 44h155q-13 -24 -17 -43.5t-4 -62.5v-305q0 -56 5.5 -84t21.5 -52q37 -55 113 -55q67 0 111 46q40 43 40 132v318q0 43 -4 62.5t-17 43.5h155q-13 -24 -17 -44t-4 -62v-455 q0 -43 4 -62.5t17 -43.5h-134zM483 860l39 -70l-175 -71l-14 25z" />
<glyph unicode="&#xdb;" horiz-adv-x="696" d="M491 0v51q-86 -66 -184 -66q-109 0 -168 62q-29 31 -40.5 70t-11.5 110v334q0 43 -4 62t-17 44h155q-13 -24 -17 -43.5t-4 -62.5v-305q0 -56 5.5 -84t21.5 -52q37 -55 113 -55q67 0 111 46q40 43 40 132v318q0 43 -4 62.5t-17 43.5h155q-13 -24 -17 -44t-4 -62v-455 q0 -43 4 -62.5t17 -43.5h-134zM358 873l133 -137l-15 -18l-118 69l-118 -69l-15 18z" />
<glyph unicode="&#xdc;" horiz-adv-x="696" d="M491 0v51q-86 -66 -184 -66q-109 0 -168 62q-29 31 -40.5 70t-11.5 110v334q0 43 -4 62t-17 44h155q-13 -24 -17 -43.5t-4 -62.5v-305q0 -56 5.5 -84t21.5 -52q37 -55 113 -55q67 0 111 46q40 43 40 132v318q0 43 -4 62.5t-17 43.5h155q-13 -24 -17 -44t-4 -62v-455 q0 -43 4 -62.5t17 -43.5h-134zM267 833q23 0 39 -16.5t16 -39.5q0 -22 -16.5 -38t-38.5 -16q-23 0 -39 16.5t-16 38.5t16 38.5t39 16.5zM449 833q23 0 39 -16.5t16 -39.5q0 -22 -16.5 -38t-38.5 -16q-23 0 -39 16.5t-16 38.5t16 38.5t39 16.5z" />
<glyph unicode="&#xdd;" horiz-adv-x="607" d="M365 273v-167q0 -43 4 -62.5t17 -43.5h-155q13 24 17 44t4 62v167l-167 287q-35 60 -76 107h167v-12q0 -38 27 -86l114 -201l102 189q28 52 28 88q0 5 -3 22h154q-39 -44 -82 -121zM451 860l39 -70l-175 -71l-14 25z" />
<glyph unicode="&#xde;" horiz-adv-x="523" d="M205 151v-45q0 -42 4 -62t17 -44h-155q13 25 17 44t4 62v455q0 42 -4 61.5t-17 44.5h155q-13 -24 -17 -43.5t-4 -62.5v-21h11q122 0 190 -46q76 -52 76 -144q0 -60 -34.5 -106t-96.5 -70q-52 -20 -146 -23zM205 470v-251q73 1 115 34.5t42 91.5q0 35 -18 64t-49 44 q-34 16 -90 17z" />
<glyph unicode="&#xdf;" horiz-adv-x="561" d="M80 399h-66l66 70v50q0 77 48.5 121.5t133.5 44.5q163 0 163 -177q0 -42 -11 -93q-94 -6 -94 -62q0 -19 12.5 -31t49.5 -30q72 -35 102 -62q42 -39 42 -97q0 -65 -48 -104.5t-128 -39.5q-65 0 -117 23l2 97q70 -58 126 -58q29 0 48.5 17t19.5 42q0 24 -14 39t-57 38 q-79 41 -107.5 71t-28.5 71q0 80 103 126q8 33 8 61q0 103 -72 103q-45 0 -64 -33q-15 -25 -15 -87v-393q0 -42 4 -62t17 -44h-144q13 24 17 43.5t4 62.5v293z" />
<glyph unicode="&#xe0;" horiz-adv-x="470" d="M293 0v47l-39 -39q-38 -19 -73 -19q-64 0 -102.5 35.5t-38.5 94.5q0 97 120 137l133 45v21q0 47 -16 64q-22 22 -61 22q-64 0 -145 -47l21 101q61 16 126 16q104 0 146 -45q19 -20 25 -42.5t6 -72.5v-212q0 -42 4 -62.5t17 -43.5h-123zM293 222h-111q-39 -29 -39 -76 q0 -38 20 -59t55 -21q37 0 75 31v125zM160 694l127 -142l-17 -23l-162 99z" />
<glyph unicode="&#xe1;" horiz-adv-x="470" d="M293 0v47l-39 -39q-38 -19 -73 -19q-64 0 -102.5 35.5t-38.5 94.5q0 97 120 137l133 45v21q0 47 -16 64q-22 22 -61 22q-64 0 -145 -47l21 101q61 16 126 16q104 0 146 -45q19 -20 25 -42.5t6 -72.5v-212q0 -42 4 -62.5t17 -43.5h-123zM293 222h-111q-39 -29 -39 -76 q0 -38 20 -59t55 -21q37 0 75 31v125zM343 694l52 -66l-161 -99l-18 23z" />
<glyph unicode="&#xe2;" horiz-adv-x="470" d="M293 0v47l-39 -39q-38 -19 -73 -19q-64 0 -102.5 35.5t-38.5 94.5q0 97 120 137l133 45v21q0 47 -16 64q-22 22 -61 22q-64 0 -145 -47l21 101q61 16 126 16q104 0 146 -45q19 -20 25 -42.5t6 -72.5v-212q0 -42 4 -62.5t17 -43.5h-123zM293 222h-111q-39 -29 -39 -76 q0 -38 20 -59t55 -21q37 0 75 31v125zM237 678l133 -137l-15 -18l-118 68l-118 -68l-15 18z" />
<glyph unicode="&#xe3;" horiz-adv-x="470" d="M293 0v47l-39 -39q-38 -19 -73 -19q-64 0 -102.5 35.5t-38.5 94.5q0 97 120 137l133 45v21q0 47 -16 64q-22 22 -61 22q-64 0 -145 -47l21 101q61 16 126 16q104 0 146 -45q19 -20 25 -42.5t6 -72.5v-212q0 -42 4 -62.5t17 -43.5h-123zM293 222h-111q-39 -29 -39 -76 q0 -38 20 -59t55 -21q37 0 75 31v125zM119 563h-21q19 85 89 85q13 0 50 -12l45 -15q27 -9 42 -9q24 0 39 26h21q-6 -38 -29.5 -61.5t-55.5 -23.5q-18 0 -53 11l-48 15q-27 9 -40 9q-25 0 -39 -25z" />
<glyph unicode="&#xe4;" horiz-adv-x="470" d="M293 0v47l-39 -39q-38 -19 -73 -19q-64 0 -102.5 35.5t-38.5 94.5q0 97 120 137l133 45v21q0 47 -16 64q-22 22 -61 22q-64 0 -145 -47l21 101q61 16 126 16q104 0 146 -45q19 -20 25 -42.5t6 -72.5v-212q0 -42 4 -62.5t17 -43.5h-123zM293 222h-111q-39 -29 -39 -76 q0 -38 20 -59t55 -21q37 0 75 31v125zM159 651q23 0 39 -16.5t16 -39.5q0 -22 -16.5 -38t-38.5 -16q-23 0 -39 16.5t-16 38.5t16 38.5t39 16.5zM316 651q23 0 39 -16.5t16 -39.5q0 -22 -16.5 -38t-38.5 -16t-38.5 16.5t-16.5 38.5t16.5 38.5t38.5 16.5z" />
<glyph unicode="&#xe5;" horiz-adv-x="470" d="M293 0v47l-39 -39q-38 -19 -73 -19q-64 0 -102.5 35.5t-38.5 94.5q0 97 120 137l133 45v21q0 47 -16 64q-22 22 -61 22q-64 0 -145 -47l21 101q61 16 126 16q104 0 146 -45q19 -20 25 -42.5t6 -72.5v-212q0 -42 4 -62.5t17 -43.5h-123zM293 222h-111q-39 -29 -39 -76 q0 -38 20 -59t55 -21q37 0 75 31v125zM254 705q37 0 59.5 -23.5t22.5 -61.5t-25.5 -62.5t-65.5 -24.5q-37 0 -60 22.5t-23 59.5q0 39 26 64.5t66 25.5zM244 677q-16 0 -25.5 -12.5t-9.5 -33.5q0 -30 13 -50t33 -20q16 0 25 12.5t9 33.5q0 29 -13 49.5t-32 20.5z" />
<glyph unicode="&#xe6;" horiz-adv-x="742" d="M71 361l21 101q61 16 126 16q118 0 156 -60q9 8 19 15q38 26 65 35.5t62 9.5q85 0 133.5 -56t48.5 -155q0 -10 -2 -50h-297q6 -73 43 -111t101 -38q66 0 148 41l-38 -92q-56 -28 -125 -28q-46 0 -76.5 12t-67.5 45q1 -15 6 -46h-101v50l-40 -42q-37 -19 -73 -19 q-63 0 -101.5 35.5t-38.5 94.5q0 97 120 137l133 45v21q0 47 -16 64q-22 22 -61 22q-65 0 -145 -47zM293 222h-111q-39 -31 -39 -76q0 -38 20 -59t55 -21q38 0 75 30v126zM403 289h196q-3 123 -95 123q-88 0 -101 -123z" />
<glyph unicode="&#xe7;" horiz-adv-x="433" d="M285 -10l-24 -40q7 1 19 1q31 0 49.5 -18t18.5 -48q0 -39 -31.5 -65.5t-77.5 -26.5q-28 0 -59 13l15 25q20 -5 33 -5q26 0 41 12.5t15 34.5q0 34 -37 34q-9 0 -24 -4l-17 28l37 59q-95 10 -148.5 71.5t-53.5 160.5q0 114 73.5 185t191.5 71q42 0 81 -11l1 -101 q-66 42 -122 42q-54 0 -85.5 -42t-31.5 -113q0 -85 40 -136t106 -51q57 0 118 36l-36 -93q-43 -16 -92 -19z" />
<glyph unicode="&#xe8;" horiz-adv-x="488" d="M446 217h-297q6 -73 43 -111t101 -38q65 0 148 41l-38 -92q-60 -28 -136 -28q-110 0 -168 65q-58 64 -58 169q0 110 64 182.5t161 72.5q85 0 133 -56t48 -156q0 -29 -1 -49zM149 289h196q-3 123 -95 123q-89 0 -101 -123zM170 694l127 -142l-17 -23l-162 99z" />
<glyph unicode="&#xe9;" horiz-adv-x="488" d="M446 217h-297q6 -73 43 -111t101 -38q65 0 148 41l-38 -92q-60 -28 -136 -28q-110 0 -168 65q-58 64 -58 169q0 110 64 182.5t161 72.5q85 0 133 -56t48 -156q0 -29 -1 -49zM149 289h196q-3 123 -95 123q-89 0 -101 -123zM365 694l52 -66l-161 -99l-18 23z" />
<glyph unicode="&#xea;" horiz-adv-x="488" d="M446 217h-297q6 -73 43 -111t101 -38q65 0 148 41l-38 -92q-60 -28 -136 -28q-110 0 -168 65q-58 64 -58 169q0 110 64 182.5t161 72.5q85 0 133 -56t48 -156q0 -29 -1 -49zM149 289h196q-3 123 -95 123q-89 0 -101 -123zM268 678l133 -137l-15 -18l-118 68l-118 -68 l-15 18z" />
<glyph unicode="&#xeb;" horiz-adv-x="488" d="M446 217h-297q6 -73 43 -111t101 -38q65 0 148 41l-38 -92q-60 -28 -136 -28q-110 0 -168 65q-58 64 -58 169q0 110 64 182.5t161 72.5q85 0 133 -56t48 -156q0 -29 -1 -49zM149 289h196q-3 123 -95 123q-89 0 -101 -123zM193 651q23 0 39 -16.5t16 -39.5 q0 -22 -16.5 -38t-38.5 -16q-23 0 -39 16.5t-16 38.5t16 38.5t39 16.5zM350 651q23 0 39 -16.5t16 -39.5q0 -22 -16.5 -38t-38.5 -16t-38.5 16.5t-16.5 38.5t16.5 38.5t38.5 16.5z" />
<glyph unicode="&#xec;" horiz-adv-x="256" d="M200 0h-144q13 24 17 44t4 62v255q0 42 -4 62t-17 44h144q-13 -24 -17 -43.5t-4 -62.5v-255q0 -43 4 -62.5t17 -43.5zM39 694l127 -142l-17 -23l-162 99z" />
<glyph unicode="&#xed;" horiz-adv-x="256" d="M200 0h-144q13 25 17 44t4 62v255q0 43 -4 62t-17 44h144q-13 -24 -17 -44t-4 -62v-255q0 -42 4 -62t17 -44zM243 694l52 -66l-161 -99l-18 23z" />
<glyph unicode="&#xee;" horiz-adv-x="256" d="M200 0h-144q13 24 17 43.5t4 62.5v255q0 42 -4 62t-17 44h144q-13 -24 -17 -44t-4 -62v-255q0 -42 4 -62t17 -44zM135 678l133 -137l-15 -18l-118 68l-118 -68l-15 18z" />
<glyph unicode="&#xef;" horiz-adv-x="256" d="M200 0h-144q13 24 17 43.5t4 62.5v255q0 42 -4 62t-17 44h144q-13 -24 -17 -44t-4 -62v-255q0 -43 4 -62.5t17 -43.5zM64 651q23 0 39 -16.5t16 -39.5q0 -22 -16.5 -38t-38.5 -16t-38.5 16.5t-16.5 38.5t16.5 38.5t38.5 16.5zM204 651q23 0 39 -16.5t16 -39.5 q0 -22 -16.5 -38t-38.5 -16t-38.5 16.5t-16.5 38.5t16.5 38.5t38.5 16.5z" />
<glyph unicode="&#xf0;" horiz-adv-x="535" d="M329 607l-75 -34l-21 46l75 34q-12 24 -26 44l50 24q17 -17 35 -41l68 30l23 -45l-63 -29q44 -79 72 -183t28 -188q0 -117 -48 -182q-68 -94 -190 -94q-97 0 -156.5 64.5t-59.5 168.5q0 112 67 182q32 35 77.5 55t91.5 20q49 0 97 -28q-15 76 -45 156zM254 409 q-49 0 -77.5 -38.5t-28.5 -104.5q0 -89 38.5 -148t96.5 -59q49 0 76.5 37.5t27.5 103.5q0 101 -43 163q-32 46 -90 46z" />
<glyph unicode="&#xf1;" horiz-adv-x="513" d="M179 467v-52l38 41q43 22 81 22q71 0 110 -44q17 -19 23.5 -45.5t6.5 -76.5v-206q0 -42 4 -62t17 -44h-144q13 24 17 43.5t4 62.5v204q0 47 -17 69t-54 22q-44 0 -86 -38v-257q0 -42 4 -62t17 -44h-144q13 25 17 44t4 62v255q0 43 -4 62t-17 44h123zM160 563h-21 q19 85 89 85q13 0 50 -12l45 -15q27 -9 42 -9q24 0 39 26h21q-6 -38 -29.5 -61.5t-55.5 -23.5q-18 0 -53 11l-48 15q-27 9 -40 9q-25 0 -39 -25z" />
<glyph unicode="&#xf2;" horiz-adv-x="535" d="M279 478q96 0 155.5 -67.5t59.5 -176.5q0 -106 -67.5 -175.5t-170.5 -69.5q-96 0 -155.5 64.5t-59.5 168.5q0 113 67 182q72 74 171 74zM252 408q-47 0 -75.5 -38.5t-28.5 -103.5q0 -89 38.5 -148t96.5 -59q47 0 75 37.5t28 101.5q0 91 -38 150.5t-96 59.5zM175 694 l127 -142l-17 -23l-162 99z" />
<glyph unicode="&#xf3;" horiz-adv-x="535" d="M279 478q96 0 155.5 -67.5t59.5 -176.5q0 -106 -67.5 -175.5t-170.5 -69.5q-96 0 -155.5 64.5t-59.5 168.5q0 113 67 182q72 74 171 74zM252 408q-47 0 -75.5 -38.5t-28.5 -103.5q0 -89 38.5 -148t96.5 -59q47 0 75 37.5t28 101.5q0 91 -38 150.5t-96 59.5zM379 694 l52 -66l-161 -99l-18 23z" />
<glyph unicode="&#xf4;" horiz-adv-x="535" d="M279 478q96 0 155.5 -67.5t59.5 -176.5q0 -106 -67.5 -175.5t-170.5 -69.5q-96 0 -155.5 64.5t-59.5 168.5q0 113 67 182q72 74 171 74zM252 408q-47 0 -75.5 -38.5t-28.5 -103.5q0 -89 38.5 -148t96.5 -59q47 0 75 37.5t28 101.5q0 91 -38 150.5t-96 59.5zM283 678 l133 -137l-15 -18l-118 68l-118 -68l-15 18z" />
<glyph unicode="&#xf5;" horiz-adv-x="535" d="M279 478q96 0 155.5 -67.5t59.5 -176.5q0 -106 -67.5 -175.5t-170.5 -69.5q-96 0 -155.5 64.5t-59.5 168.5q0 113 67 182q72 74 171 74zM252 408q-47 0 -75.5 -38.5t-28.5 -103.5q0 -89 38.5 -148t96.5 -59q47 0 75 37.5t28 101.5q0 91 -38 150.5t-96 59.5zM172 563h-21 q19 85 89 85q13 0 50 -12l45 -15q27 -9 42 -9q24 0 39 26h21q-6 -38 -29.5 -61.5t-55.5 -23.5q-18 0 -53 11l-48 15q-27 9 -40 9q-25 0 -39 -25z" />
<glyph unicode="&#xf6;" horiz-adv-x="535" d="M279 478q96 0 155.5 -67.5t59.5 -176.5q0 -106 -67.5 -175.5t-170.5 -69.5q-96 0 -155.5 64.5t-59.5 168.5q0 113 67 182q72 74 171 74zM252 408q-47 0 -75.5 -38.5t-28.5 -103.5q0 -89 38.5 -148t96.5 -59q47 0 75 37.5t28 101.5q0 91 -38 150.5t-96 59.5zM207 651 q23 0 39 -16.5t16 -39.5q0 -22 -16.5 -38t-38.5 -16q-23 0 -39 16.5t-16 38.5t16 38.5t39 16.5zM364 651q23 0 39 -16.5t16 -39.5q0 -22 -16.5 -38t-38.5 -16t-38.5 16.5t-16.5 38.5t16.5 38.5t38.5 16.5z" />
<glyph unicode="&#xf7;" horiz-adv-x="589" d="M56 380h478v-80h-478v80zM295 580q32 0 53.5 -20.5t21.5 -50.5q0 -29 -22 -49.5t-53 -20.5t-53 21t-22 50t22 49.5t53 20.5zM295 239q32 0 53.5 -20.5t21.5 -50.5q0 -29 -22 -49.5t-53 -20.5t-53 21t-22 50t22 49.5t53 20.5z" />
<glyph unicode="&#xf8;" horiz-adv-x="535" d="M476 492l-50 -72q68 -68 68 -182q0 -109 -66.5 -179t-170.5 -70q-61 0 -106 24l-26 -38h-66l49 71q-67 71 -67 176q0 111 68 183.5t172 72.5q59 0 102 -25l27 39h66zM360 325l-154 -232q37 -34 77 -34q48 0 75.5 37.5t27.5 104.5q0 62 -26 124zM176 142l153 233 q-34 33 -76 33q-49 0 -77 -39t-28 -106q0 -59 28 -121z" />
<glyph unicode="&#xf9;" horiz-adv-x="513" d="M334 0v52l-38 -41q-43 -22 -81 -22q-71 0 -110 44q-17 19 -23.5 45.5t-6.5 76.5v206q0 42 -4 61.5t-17 44.5h144q-13 -24 -17 -43.5t-4 -62.5v-204q0 -47 17 -69t54 -22q44 0 86 38v257q0 42 -4 62t-17 44h144q-13 -24 -17 -43.5t-4 -62.5v-255q0 -42 4 -62t17 -44h-123z M171 694l127 -142l-17 -23l-162 99z" />
<glyph unicode="&#xfa;" horiz-adv-x="513" d="M334 0v52l-38 -41q-43 -22 -81 -22q-71 0 -110 44q-17 19 -23.5 45.5t-6.5 76.5v206q0 42 -4 61.5t-17 44.5h144q-13 -24 -17 -43.5t-4 -62.5v-204q0 -47 17 -69t54 -22q44 0 86 38v257q0 42 -4 62t-17 44h144q-13 -24 -17 -43.5t-4 -62.5v-255q0 -42 4 -62t17 -44h-123z M368 694l52 -66l-161 -99l-18 23z" />
<glyph unicode="&#xfb;" horiz-adv-x="513" d="M334 0v52l-38 -41q-43 -22 -81 -22q-71 0 -110 44q-17 19 -23.5 45.5t-6.5 76.5v206q0 42 -4 61.5t-17 44.5h144q-13 -24 -17 -43.5t-4 -62.5v-204q0 -47 17 -69t54 -22q44 0 86 38v257q0 42 -4 62t-17 44h144q-13 -24 -17 -43.5t-4 -62.5v-255q0 -42 4 -62t17 -44h-123z M270 678l133 -137l-15 -18l-118 68l-118 -68l-15 18z" />
<glyph unicode="&#xfc;" horiz-adv-x="513" d="M334 0v52l-38 -41q-43 -22 -81 -22q-71 0 -110 44q-17 19 -23.5 45.5t-6.5 76.5v206q0 42 -4 61.5t-17 44.5h144q-13 -24 -17 -43.5t-4 -62.5v-204q0 -47 17 -69t54 -22q44 0 86 38v257q0 42 -4 62t-17 44h144q-13 -24 -17 -43.5t-4 -62.5v-255q0 -42 4 -62t17 -44h-123z M184 651q23 0 39 -16.5t16 -39.5q0 -22 -16.5 -38t-38.5 -16t-38.5 16.5t-16.5 38.5t16.5 38.5t38.5 16.5zM341 651q23 0 39 -16.5t16 -39.5q0 -22 -16.5 -38t-38.5 -16q-23 0 -39 16.5t-16 38.5t16 38.5t39 16.5z" />
<glyph unicode="&#xfd;" horiz-adv-x="443" d="M232 139l74 242q7 21 7 44q0 19 -8 42h133q-23 -30 -51 -114l-101 -307q-40 -122 -65.5 -163t-62.5 -41q-24 0 -55 15q39 50 61 103l18 42l-122 351q-24 70 -55 114h152q-10 -17 -10 -35q0 -22 10 -55zM339 694l52 -66l-161 -99l-18 23z" />
<glyph unicode="&#xfe;" horiz-adv-x="515" d="M179 2v-43q0 -42 4 -62.5t17 -43.5h-144q13 25 17 44t4 62v601q0 50 -21 90l139 48q-16 -54 -16 -120v-164l47 45q38 19 70 19q77 0 127.5 -62.5t50.5 -156.5q0 -110 -67 -187.5t-162 -77.5q-23 0 -66 8zM179 361v-278q37 -17 72 -17q56 0 85.5 43t29.5 125 q0 77 -28.5 120t-79.5 43q-39 0 -79 -36z" />
<glyph unicode="&#xff;" horiz-adv-x="443" d="M232 139l74 242q7 21 7 44q0 19 -8 42h133q-23 -30 -51 -114l-101 -307q-40 -122 -65.5 -163t-62.5 -41q-24 0 -55 15q39 50 61 103l18 42l-122 351q-24 70 -55 114h152q-10 -17 -10 -35q0 -22 10 -55zM152 651q23 0 39 -16.5t16 -39.5q0 -22 -16.5 -38t-38.5 -16 t-38.5 16.5t-16.5 38.5t16.5 38.5t38.5 16.5zM309 651q23 0 39 -16.5t16 -39.5q0 -22 -16.5 -38t-38.5 -16q-23 0 -39 16.5t-16 38.5t16 38.5t39 16.5z" />
<glyph unicode="&#x152;" horiz-adv-x="891" d="M575 380h236l-55 -109q-51 38 -133 38h-48v-236h73q110 0 206 37l-50 -110h-318q-68 -10 -106 -10q-159 0 -246 92q-44 46 -69 110.5t-25 134.5q0 151 102 250.5t256 99.5q36 0 88 -10h349l-51 -107q-47 34 -138 34h-71v-214zM462 78v509q-38 13 -76 13 q-101 0 -163.5 -68t-62.5 -179q0 -121 68.5 -203t169.5 -82q28 0 64 10z" />
<glyph unicode="&#x153;" horiz-adv-x="820" d="M778 217h-297q6 -73 43 -111t101 -38q65 0 148 41l-38 -92q-60 -28 -136 -28q-88 0 -150 50q-16 13 -23 23q-9 -10 -20 -17q-60 -40 -82.5 -48t-69.5 -8q-95 0 -154 65t-59 168q0 110 68 183t171 73q102 0 156 -74q29 34 72.5 54t88.5 20q86 0 135 -56.5t47 -154.5z M252 408q-47 0 -75.5 -38.5t-28.5 -103.5q0 -89 38.5 -148t96.5 -59q47 0 75 37.5t28 101.5q0 97 -46 162q-33 48 -88 48zM481 289h195q-2 123 -94 123q-89 0 -101 -123z" />
<glyph unicode="&#x178;" horiz-adv-x="607" d="M365 273v-167q0 -43 4 -62.5t17 -43.5h-155q13 24 17 44t4 62v167l-167 287q-35 60 -76 107h167v-12q0 -38 27 -86l114 -201l102 189q28 52 28 88q0 5 -3 22h154q-39 -44 -82 -121zM222 833q23 0 39 -16.5t16 -39.5q0 -22 -16.5 -38t-38.5 -16t-38.5 16.5t-16.5 38.5 t16.5 38.5t38.5 16.5zM404 833q23 0 39 -16.5t16 -39.5q0 -22 -16.5 -38t-38.5 -16t-38.5 16.5t-16.5 38.5t16.5 38.5t38.5 16.5z" />
<glyph unicode="&#x2c6;" d="M250 678l133 -137l-15 -18l-118 68l-118 -68l-15 18z" />
<glyph unicode="&#x2dc;" d="M135 563h-21q19 85 89 85q13 0 50 -12l45 -15q27 -9 42 -9q24 0 39 26h21q-6 -38 -29.5 -61.5t-55.5 -23.5q-18 0 -53 11l-48 15q-27 9 -40 9q-25 0 -39 -25z" />
<glyph unicode="&#x2000;" horiz-adv-x="444" />
<glyph unicode="&#x2001;" horiz-adv-x="888" />
<glyph unicode="&#x2002;" horiz-adv-x="444" />
<glyph unicode="&#x2003;" horiz-adv-x="888" />
<glyph unicode="&#x2004;" horiz-adv-x="296" />
<glyph unicode="&#x2005;" horiz-adv-x="222" />
<glyph unicode="&#x2006;" horiz-adv-x="148" />
<glyph unicode="&#x2007;" horiz-adv-x="148" />
<glyph unicode="&#x2008;" horiz-adv-x="111" />
<glyph unicode="&#x2009;" horiz-adv-x="177" />
<glyph unicode="&#x200a;" horiz-adv-x="49" />
<glyph unicode="&#x2010;" horiz-adv-x="340" d="M47 184v112q31 -8 69 -8h109q38 0 69 8v-112q-31 8 -69 8h-109q-38 0 -69 -8z" />
<glyph unicode="&#x2011;" horiz-adv-x="340" d="M47 184v112q31 -8 69 -8h109q38 0 69 8v-112q-31 8 -69 8h-109q-38 0 -69 -8z" />
<glyph unicode="&#x2013;" horiz-adv-x="516" d="M47 184v112q31 -8 69 -8h284q38 0 69 8v-112q-31 8 -69 8h-284q-38 0 -69 -8z" />
<glyph unicode="&#x2014;" horiz-adv-x="705" d="M47 184v112q31 -8 69 -8h473q38 0 69 8v-112q-31 8 -69 8h-473q-38 0 -69 -8z" />
<glyph unicode="&#x2018;" horiz-adv-x="261" d="M175 442h-119v16q0 125 89 209h73q-46 -89 -46 -179q0 -14 3 -46z" />
<glyph unicode="&#x2019;" horiz-adv-x="261" d="M86 667h119v-16q0 -59 -23.5 -114.5t-65.5 -94.5h-73q46 89 46 179q0 15 -3 46z" />
<glyph unicode="&#x201a;" horiz-adv-x="261" d="M86 149h119v-16q0 -59 -23.5 -114.5t-65.5 -94.5h-73q46 89 46 179q0 15 -3 46z" />
<glyph unicode="&#x201c;" horiz-adv-x="437" d="M352 442h-119q-1 7 -1 17q0 59 23.5 114t65.5 94h73q-46 -89 -46 -179q0 -18 4 -46zM175 442h-119v16q0 125 89 209h73q-46 -89 -46 -179q0 -14 3 -46z" />
<glyph unicode="&#x201d;" horiz-adv-x="437" d="M86 667h119v-16q0 -59 -23.5 -114.5t-65.5 -94.5h-73q46 89 46 179q0 15 -3 46zM262 667h119v-16q0 -125 -89 -209h-73q46 88 46 178q0 14 -3 47z" />
<glyph unicode="&#x201e;" horiz-adv-x="437" d="M86 149h119v-16q0 -59 -23.5 -114.5t-65.5 -94.5h-73q46 89 46 179q0 15 -3 46zM262 149h119v-16q0 -125 -89 -209h-73q46 89 46 178q0 14 -3 47z" />
<glyph unicode="&#x2022;" horiz-adv-x="667" d="M336 477q56 0 96.5 -41t40.5 -98t-40.5 -97.5t-97.5 -40.5q-58 0 -98.5 40.5t-40.5 97.5q0 58 40.5 98.5t99.5 40.5z" />
<glyph unicode="&#x2026;" horiz-adv-x="800" d="M133 147q35 0 58.5 -22.5t23.5 -55.5q0 -31 -24 -53.5t-58 -22.5t-58 22.5t-24 54.5t24 54.5t58 22.5zM400 147q35 0 58.5 -22.5t23.5 -55.5q0 -31 -24 -53.5t-58 -22.5t-58 22.5t-24 54.5t24 54.5t58 22.5zM666 147q35 0 59 -22.5t24 -55.5q0 -31 -24.5 -53.5 t-57.5 -22.5q-34 0 -58.5 22.5t-24.5 54.5t24 54.5t58 22.5z" />
<glyph unicode="&#x202f;" horiz-adv-x="177" />
<glyph unicode="&#x2039;" horiz-adv-x="285" d="M162 403h74q-18 -48 -49 -94t-61 -69q30 -23 61 -69t49 -94h-74q-21 45 -63.5 94t-76.5 69q34 20 76.5 69t63.5 94z" />
<glyph unicode="&#x203a;" horiz-adv-x="285" d="M123 77h-74q18 48 49 94t60 69q-29 22 -60 68.5t-49 94.5h74q20 -44 62.5 -93.5t77.5 -69.5q-35 -20 -77.5 -69.5t-62.5 -93.5z" />
<glyph unicode="&#x205f;" horiz-adv-x="222" />
<glyph unicode="&#x20ac;" horiz-adv-x="722" d="M140 295h-86l34 79h54q17 136 120 222t251 86q82 0 148 -23l-1 -110q-71 55 -165 55q-96 0 -158.5 -61.5t-75.5 -168.5h314l-33 -79h-281q13 -106 77 -168t159 -62q90 0 169 65l3 -115q-93 -30 -183 -30q-148 0 -243 85t-103 225z" />
<glyph unicode="&#x2122;" horiz-adv-x="790" d="M203 624v-236q0 -33 14 -55h-109q14 21 14 55v236h-4q-51 0 -102 -21l25 64h275l-23 -60q-32 18 -90 17zM437 527v-139q0 -34 14 -55h-96q14 21 14 55v230l-31 49h105q-2 -7 -2 -14q0 -12 10 -28l98 -164l88 155q11 19 11 36q0 1 -2 15h98q-14 -21 -14 -55v-224 q0 -33 14 -55h-109q14 22 14 55v138l-103 -182z" />
</font>
</defs>
</svg>
